<svg xmlns="http://www.w3.org/2000/svg" width="301.693" height="339.147" viewBox="0 0 301.693 339.147">
  <g id="Intersection_1" data-name="Intersection 1" transform="matrix(0.799, 0.602, -0.602, 0.799, 194.955, 0)">
    <path d="M 52.10397338867188 323.2758178710938 C 45.76063919067383 316.3233032226562 39.8520622253418 308.642578125 34.5375862121582 300.4400024414062 C 29.07525444030762 292.00927734375 24.16408729553223 282.908935546875 19.94058799743652 273.3917846679688 C 11.18717098236084 253.6670684814453 5.299837112426758 232.0999450683594 2.4421706199646 209.2894897460938 C -0.1543710082769394 188.5631103515625 -0.1475793421268463 167.5250396728516 2.462378978729248 146.7596588134766 C 4.986795425415039 126.6746978759766 9.904253959655762 107.125114440918 17.07812881469727 88.65399169921875 C 24.16212844848633 70.41428375244141 33.30216979980469 53.5889892578125 44.24441909790039 38.64545059204102 C 55.20468139648438 23.67735290527344 67.75318145751953 10.90249252319336 81.54598999023438 0.6698432564735413 C 87.88936614990234 7.622347354888916 93.79794311523438 15.30303955078125 99.11250305175781 23.50557327270508 C 104.5748825073242 31.93628311157227 109.4860076904297 41.03657531738281 113.7095489501953 50.55365753173828 C 122.463005065918 70.2783203125 128.350341796875 91.84536743164062 131.2079162597656 114.6556549072266 C 133.8044281005859 135.3822021484375 133.7975921630859 156.4203643798828 131.1876220703125 177.1857452392578 C 128.6632080078125 197.2707824707031 123.7457504272461 216.8204040527344 116.5719223022461 235.2915802001953 C 109.487922668457 253.5313262939453 100.3478775024414 270.3566589355469 89.40563201904297 285.3001708984375 C 78.44536590576172 300.2682800292969 65.89682769775391 313.0431518554688 52.10397338867188 323.2758178710938 Z" stroke="none"/>
    <path d="M 52.16896438598633 322.6042175292969 C 65.77871704101562 312.4470825195312 78.16788482666016 299.8009338378906 89.00221252441406 285.0047912597656 C 99.91867065429688 270.0964965820312 109.0376281738281 253.3096160888672 116.1058349609375 235.1105804443359 C 123.2648391723633 216.6775360107422 128.1722106933594 197.1678619384766 130.6915435791016 177.1234130859375 C 133.2962951660156 156.3992767333984 133.3031311035156 135.4030303955078 130.7117919921875 114.7177810668945 C 127.8602981567383 91.95607757568359 121.9861297607422 70.43640899658203 113.2525482177734 50.75649261474609 C 109.0395889282227 41.26328277587891 104.1410446166992 32.18624114990234 98.69287872314453 23.7774486541748 C 93.47836303710938 15.72928619384766 87.69062042236328 8.185232162475586 81.48100280761719 1.341421961784363 C 67.87129211425781 11.49855518341064 55.48216247558594 24.14471817016602 44.6478385925293 38.94086456298828 C 33.73138046264648 53.84915924072266 24.61237907409668 70.63599395751953 17.54421234130859 88.83502960205078 C 10.38517093658447 107.2679901123047 5.477795600891113 126.7776565551758 2.958462238311768 146.8220367431641 C 0.3537123203277588 167.5460815429688 0.3469206690788269 188.542236328125 2.938295602798462 209.2273712158203 C 5.789878845214844 231.9891967773438 11.6640453338623 253.509033203125 20.39762878417969 273.1889953613281 C 24.61050415039062 282.6822509765625 29.50908660888672 291.7593383789062 34.95721054077148 300.1681213378906 C 40.17168807983398 308.21630859375 45.95938873291016 315.7604064941406 52.16896438598633 322.6042175292969 M 52.03916931152344 323.9456481933594 C 26.16083717346191 295.7387084960938 7.800295829772949 256.0811462402344 1.946045637130737 209.3516540527344 C -8.685037612915039 124.4909515380859 25.13154602050781 41.65311431884766 81.61079406738281 -9.236653568223119e-06 C 107.4892501831055 28.20686531066895 125.8499603271484 67.86424255371094 131.7040405273438 114.5934906005859 C 142.3349151611328 199.4546508789062 108.5186309814453 282.2925415039062 52.03916931152344 323.9456481933594 Z" stroke="none" fill="#707070"/>
  </g>
</svg>
